<svg width="139" height="57" viewBox="0 0 139 57" fill="none" xmlns="http://www.w3.org/2000/svg">
<path d="M12.825 46.556C12.825 47.522 12.672 48.401 12.366 49.193C12.06 49.985 11.628 50.663 11.07 51.227C10.512 51.791 9.84 52.229 9.054 52.541C8.274 52.847 7.41 53 6.462 53H1.647V40.103H6.462C7.41 40.103 8.274 40.259 9.054 40.571C9.84 40.877 10.512 41.315 11.07 41.885C11.628 42.449 12.06 43.127 12.366 43.919C12.672 44.711 12.825 45.59 12.825 46.556ZM11.034 46.556C11.034 45.764 10.926 45.056 10.71 44.432C10.494 43.808 10.188 43.28 9.792 42.848C9.396 42.416 8.916 42.086 8.352 41.858C7.788 41.63 7.158 41.516 6.462 41.516H3.393V51.587H6.462C7.158 51.587 7.788 51.473 8.352 51.245C8.916 51.017 9.396 50.69 9.792 50.264C10.188 49.832 10.494 49.304 10.71 48.68C10.926 48.056 11.034 47.348 11.034 46.556ZM23.2964 51.578L23.2874 53H15.3404V40.103H23.2874V41.525H17.0864V45.809H22.1084V47.177H17.0864V51.578H23.2964ZM32.326 42.119C32.272 42.209 32.212 42.278 32.146 42.326C32.086 42.368 32.011 42.389 31.921 42.389C31.819 42.389 31.699 42.338 31.561 42.236C31.423 42.134 31.249 42.023 31.039 41.903C30.835 41.777 30.586 41.663 30.292 41.561C30.004 41.459 29.653 41.408 29.239 41.408C28.849 41.408 28.504 41.462 28.204 41.57C27.91 41.672 27.661 41.813 27.457 41.993C27.259 42.173 27.109 42.386 27.007 42.632C26.905 42.872 26.854 43.133 26.854 43.415C26.854 43.775 26.941 44.075 27.115 44.315C27.295 44.549 27.529 44.75 27.817 44.918C28.111 45.086 28.441 45.233 28.807 45.359C29.179 45.479 29.557 45.605 29.941 45.737C30.331 45.869 30.709 46.019 31.075 46.187C31.447 46.349 31.777 46.556 32.065 46.808C32.359 47.06 32.593 47.369 32.767 47.735C32.947 48.101 33.037 48.551 33.037 49.085C33.037 49.649 32.941 50.18 32.749 50.678C32.557 51.17 32.275 51.599 31.903 51.965C31.537 52.331 31.084 52.619 30.544 52.829C30.01 53.039 29.401 53.144 28.717 53.144C27.877 53.144 27.115 52.994 26.431 52.694C25.747 52.388 25.162 51.977 24.676 51.461L25.18 50.633C25.228 50.567 25.285 50.513 25.351 50.471C25.423 50.423 25.501 50.399 25.585 50.399C25.663 50.399 25.75 50.432 25.846 50.498C25.948 50.558 26.062 50.636 26.188 50.732C26.314 50.828 26.458 50.933 26.62 51.047C26.782 51.161 26.965 51.266 27.169 51.362C27.379 51.458 27.616 51.539 27.88 51.605C28.144 51.665 28.441 51.695 28.771 51.695C29.185 51.695 29.554 51.638 29.878 51.524C30.202 51.41 30.475 51.251 30.697 51.047C30.925 50.837 31.099 50.588 31.219 50.3C31.339 50.012 31.399 49.691 31.399 49.337C31.399 48.947 31.309 48.629 31.129 48.383C30.955 48.131 30.724 47.921 30.436 47.753C30.148 47.585 29.818 47.444 29.446 47.33C29.074 47.21 28.696 47.09 28.312 46.97C27.928 46.844 27.55 46.7 27.178 46.538C26.806 46.376 26.476 46.166 26.188 45.908C25.9 45.65 25.666 45.329 25.486 44.945C25.312 44.555 25.225 44.075 25.225 43.505C25.225 43.049 25.312 42.608 25.486 42.182C25.666 41.756 25.924 41.378 26.26 41.048C26.602 40.718 27.019 40.454 27.511 40.256C28.009 40.058 28.579 39.959 29.221 39.959C29.941 39.959 30.595 40.073 31.183 40.301C31.777 40.529 32.299 40.859 32.749 41.291L32.326 42.119ZM37.2485 53H35.5025V40.103H37.2485V53ZM51.0234 46.799V51.749C50.3754 52.217 49.6824 52.568 48.9444 52.802C48.2124 53.03 47.4084 53.144 46.5324 53.144C45.4944 53.144 44.5584 52.985 43.7244 52.667C42.8904 52.343 42.1764 51.893 41.5824 51.317C40.9944 50.735 40.5414 50.039 40.2234 49.229C39.9054 48.419 39.7464 47.528 39.7464 46.556C39.7464 45.572 39.8994 44.675 40.2054 43.865C40.5174 43.055 40.9584 42.362 41.5284 41.786C42.0984 41.204 42.7914 40.754 43.6074 40.436C44.4234 40.118 45.3354 39.959 46.3434 39.959C46.8534 39.959 47.3274 39.998 47.7654 40.076C48.2034 40.148 48.6084 40.256 48.9804 40.4C49.3524 40.538 49.6974 40.709 50.0154 40.913C50.3334 41.111 50.6304 41.336 50.9064 41.588L50.4114 42.38C50.3334 42.5 50.2314 42.578 50.1054 42.614C49.9854 42.644 49.8504 42.614 49.7004 42.524C49.5564 42.44 49.3914 42.338 49.2054 42.218C49.0194 42.098 48.7914 41.984 48.5214 41.876C48.2574 41.762 47.9424 41.666 47.5764 41.588C47.2164 41.51 46.7874 41.471 46.2894 41.471C45.5634 41.471 44.9064 41.591 44.3184 41.831C43.7304 42.065 43.2294 42.404 42.8154 42.848C42.4014 43.286 42.0834 43.82 41.8614 44.45C41.6394 45.074 41.5284 45.776 41.5284 46.556C41.5284 47.366 41.6424 48.092 41.8704 48.734C42.1044 49.37 42.4344 49.913 42.8604 50.363C43.2924 50.807 43.8144 51.146 44.4264 51.38C45.0384 51.614 45.7254 51.731 46.4874 51.731C47.0874 51.731 47.6184 51.665 48.0804 51.533C48.5484 51.395 49.0044 51.206 49.4484 50.966V48.131H47.4414C47.3274 48.131 47.2344 48.098 47.1624 48.032C47.0964 47.966 47.0634 47.885 47.0634 47.789V46.799H51.0234ZM64.1448 40.103V53H63.2718C63.1338 53 63.0168 52.976 62.9208 52.928C62.8308 52.88 62.7408 52.799 62.6508 52.685L55.1898 42.965C55.2018 43.115 55.2108 43.262 55.2168 43.406C55.2228 43.55 55.2258 43.685 55.2258 43.811V53H53.6958V40.103H54.5958C54.6738 40.103 54.7398 40.109 54.7938 40.121C54.8478 40.127 54.8958 40.142 54.9378 40.166C54.9798 40.184 55.0218 40.214 55.0638 40.256C55.1058 40.292 55.1508 40.34 55.1988 40.4L62.6598 50.111C62.6478 49.955 62.6358 49.805 62.6238 49.661C62.6178 49.511 62.6148 49.37 62.6148 49.238V40.103H64.1448ZM78.6444 42.119C78.5904 42.209 78.5304 42.278 78.4644 42.326C78.4044 42.368 78.3294 42.389 78.2394 42.389C78.1374 42.389 78.0174 42.338 77.8794 42.236C77.7414 42.134 77.5674 42.023 77.3574 41.903C77.1534 41.777 76.9044 41.663 76.6104 41.561C76.3224 41.459 75.9714 41.408 75.5574 41.408C75.1674 41.408 74.8224 41.462 74.5224 41.57C74.2284 41.672 73.9794 41.813 73.7754 41.993C73.5774 42.173 73.4274 42.386 73.3254 42.632C73.2234 42.872 73.1724 43.133 73.1724 43.415C73.1724 43.775 73.2594 44.075 73.4334 44.315C73.6134 44.549 73.8474 44.75 74.1354 44.918C74.4294 45.086 74.7594 45.233 75.1254 45.359C75.4974 45.479 75.8754 45.605 76.2594 45.737C76.6494 45.869 77.0274 46.019 77.3934 46.187C77.7654 46.349 78.0954 46.556 78.3834 46.808C78.6774 47.06 78.9114 47.369 79.0854 47.735C79.2654 48.101 79.3554 48.551 79.3554 49.085C79.3554 49.649 79.2594 50.18 79.0674 50.678C78.8754 51.17 78.5934 51.599 78.2214 51.965C77.8554 52.331 77.4024 52.619 76.8624 52.829C76.3284 53.039 75.7194 53.144 75.0354 53.144C74.1954 53.144 73.4334 52.994 72.7494 52.694C72.0654 52.388 71.4804 51.977 70.9944 51.461L71.4984 50.633C71.5464 50.567 71.6034 50.513 71.6694 50.471C71.7414 50.423 71.8194 50.399 71.9034 50.399C71.9814 50.399 72.0684 50.432 72.1644 50.498C72.2664 50.558 72.3804 50.636 72.5064 50.732C72.6324 50.828 72.7764 50.933 72.9384 51.047C73.1004 51.161 73.2834 51.266 73.4874 51.362C73.6974 51.458 73.9344 51.539 74.1984 51.605C74.4624 51.665 74.7594 51.695 75.0894 51.695C75.5034 51.695 75.8724 51.638 76.1964 51.524C76.5204 51.41 76.7934 51.251 77.0154 51.047C77.2434 50.837 77.4174 50.588 77.5374 50.3C77.6574 50.012 77.7174 49.691 77.7174 49.337C77.7174 48.947 77.6274 48.629 77.4474 48.383C77.2734 48.131 77.0424 47.921 76.7544 47.753C76.4664 47.585 76.1364 47.444 75.7644 47.33C75.3924 47.21 75.0144 47.09 74.6304 46.97C74.2464 46.844 73.8684 46.7 73.4964 46.538C73.1244 46.376 72.7944 46.166 72.5064 45.908C72.2184 45.65 71.9844 45.329 71.8044 44.945C71.6304 44.555 71.5434 44.075 71.5434 43.505C71.5434 43.049 71.6304 42.608 71.8044 42.182C71.9844 41.756 72.2424 41.378 72.5784 41.048C72.9204 40.718 73.3374 40.454 73.8294 40.256C74.3274 40.058 74.8974 39.959 75.5394 39.959C76.2594 39.959 76.9134 40.073 77.5014 40.301C78.0954 40.529 78.6174 40.859 79.0674 41.291L78.6444 42.119ZM86.3992 47.861V53H84.6532V47.861L79.9282 40.103H81.4582C81.6142 40.103 81.7372 40.142 81.8272 40.22C81.9172 40.292 81.9952 40.388 82.0612 40.508L85.0132 45.521C85.1212 45.731 85.2202 45.929 85.3102 46.115C85.4002 46.295 85.4782 46.478 85.5442 46.664C85.6102 46.478 85.6852 46.295 85.7692 46.115C85.8532 45.929 85.9462 45.731 86.0482 45.521L88.9912 40.508C89.0452 40.406 89.1202 40.313 89.2162 40.229C89.3122 40.145 89.4352 40.103 89.5852 40.103H91.1242L86.3992 47.861ZM98.9823 42.119C98.9283 42.209 98.8683 42.278 98.8023 42.326C98.7423 42.368 98.6673 42.389 98.5773 42.389C98.4753 42.389 98.3553 42.338 98.2173 42.236C98.0793 42.134 97.9053 42.023 97.6953 41.903C97.4913 41.777 97.2423 41.663 96.9483 41.561C96.6603 41.459 96.3093 41.408 95.8953 41.408C95.5053 41.408 95.1603 41.462 94.8603 41.57C94.5663 41.672 94.3173 41.813 94.1133 41.993C93.9153 42.173 93.7653 42.386 93.6633 42.632C93.5613 42.872 93.5103 43.133 93.5103 43.415C93.5103 43.775 93.5973 44.075 93.7713 44.315C93.9513 44.549 94.1853 44.75 94.4733 44.918C94.7673 45.086 95.0973 45.233 95.4633 45.359C95.8353 45.479 96.2133 45.605 96.5973 45.737C96.9873 45.869 97.3653 46.019 97.7313 46.187C98.1033 46.349 98.4333 46.556 98.7213 46.808C99.0153 47.06 99.2493 47.369 99.4233 47.735C99.6033 48.101 99.6933 48.551 99.6933 49.085C99.6933 49.649 99.5973 50.18 99.4053 50.678C99.2133 51.17 98.9313 51.599 98.5593 51.965C98.1933 52.331 97.7403 52.619 97.2003 52.829C96.6663 53.039 96.0573 53.144 95.3733 53.144C94.5333 53.144 93.7713 52.994 93.0873 52.694C92.4033 52.388 91.8183 51.977 91.3323 51.461L91.8363 50.633C91.8843 50.567 91.9413 50.513 92.0073 50.471C92.0793 50.423 92.1573 50.399 92.2413 50.399C92.3193 50.399 92.4063 50.432 92.5023 50.498C92.6043 50.558 92.7183 50.636 92.8443 50.732C92.9703 50.828 93.1143 50.933 93.2763 51.047C93.4383 51.161 93.6213 51.266 93.8253 51.362C94.0353 51.458 94.2723 51.539 94.5363 51.605C94.8003 51.665 95.0973 51.695 95.4273 51.695C95.8413 51.695 96.2103 51.638 96.5343 51.524C96.8583 51.41 97.1313 51.251 97.3533 51.047C97.5813 50.837 97.7553 50.588 97.8753 50.3C97.9953 50.012 98.0553 49.691 98.0553 49.337C98.0553 48.947 97.9653 48.629 97.7853 48.383C97.6113 48.131 97.3803 47.921 97.0923 47.753C96.8043 47.585 96.4743 47.444 96.1023 47.33C95.7303 47.21 95.3523 47.09 94.9683 46.97C94.5843 46.844 94.2063 46.7 93.8343 46.538C93.4623 46.376 93.1323 46.166 92.8443 45.908C92.5563 45.65 92.3223 45.329 92.1423 44.945C91.9683 44.555 91.8813 44.075 91.8813 43.505C91.8813 43.049 91.9683 42.608 92.1423 42.182C92.3223 41.756 92.5803 41.378 92.9163 41.048C93.2583 40.718 93.6753 40.454 94.1673 40.256C94.6653 40.058 95.2353 39.959 95.8773 39.959C96.5973 39.959 97.2513 40.073 97.8393 40.301C98.4333 40.529 98.9553 40.859 99.4053 41.291L98.9823 42.119ZM110.88 41.57H106.704V53H104.967V41.57H100.782V40.103H110.88V41.57ZM120.749 51.578L120.74 53H112.793V40.103H120.74V41.525H114.539V45.809H119.561V47.177H114.539V51.578H120.749ZM136.601 40.103V53H135.071V43.523C135.071 43.397 135.074 43.262 135.08 43.118C135.092 42.974 135.104 42.827 135.116 42.677L130.688 50.741C130.55 51.011 130.34 51.146 130.058 51.146H129.806C129.524 51.146 129.314 51.011 129.176 50.741L124.658 42.641C124.694 42.959 124.712 43.253 124.712 43.523V53H123.182V40.103H124.469C124.625 40.103 124.745 40.118 124.829 40.148C124.913 40.178 124.994 40.262 125.072 40.4L129.527 48.338C129.599 48.482 129.668 48.632 129.734 48.788C129.806 48.944 129.872 49.103 129.932 49.265C129.992 49.103 130.055 48.944 130.121 48.788C130.187 48.626 130.259 48.473 130.337 48.329L134.711 40.4C134.783 40.262 134.861 40.178 134.945 40.148C135.035 40.118 135.158 40.103 135.314 40.103H136.601Z" fill="#4A505A"/>
<g clip-path="url(#clip0_244_11339)">
<path d="M132.646 20.844H127.555C124.995 20.844 123.674 21.996 123.674 23.961C123.674 25.926 124.911 27.0397 127.65 27.0397C129.312 27.0397 130.559 26.9074 131.711 25.8025C132.353 25.16 132.655 24.1404 132.655 22.601V20.844H132.646ZM132.731 30.4111V28.4468C131.154 30.0237 129.652 30.6662 126.96 30.6662C124.268 30.6662 122.476 30.0237 121.153 28.7019C120.001 27.4301 119.388 25.7606 119.444 24.0455C119.444 20.4096 121.965 17.8123 126.924 17.8123H132.647V16.2729C132.647 13.5338 131.277 12.2121 127.906 12.2121C125.516 12.2121 124.364 12.7693 123.165 14.3087L120.303 11.6173C122.352 9.22741 124.486 8.50037 128.075 8.50037C134.015 8.50037 137 11.0219 137 15.9333V30.4118L132.731 30.4111Z" fill="#212529"/>
<path d="M117.686 30.4111C113.539 30.4111 111.745 27.6345 111.745 24.433V0H116.099V24.1779C116.099 29.5238 119.858 30.4111 119.858 30.4111H117.686Z" fill="#212529"/>
<path d="M95.0289 17.8123C94.9888 16.8006 95.1794 15.7931 95.5861 14.8659C95.9457 14.0276 96.5502 13.3175 97.3204 12.8287C98.0906 12.34 98.9904 12.0953 99.9021 12.1268C100.808 12.0957 101.701 12.3411 102.464 12.8304C103.226 13.3198 103.822 14.0297 104.171 14.8659C104.587 15.7914 104.79 16.7981 104.766 17.8123H95.0289ZM99.9021 8.50037C94.3489 8.50037 90.7129 12.5613 90.7129 19.5693C90.7129 27.8146 95.0289 30.6757 100.45 30.6757C101.968 30.7572 103.486 30.4965 104.89 29.913C106.294 29.3295 107.549 28.438 108.563 27.3044L105.786 24.6976C105.139 25.4448 104.329 26.0334 103.419 26.4182C102.508 26.803 101.522 26.9736 100.535 26.917C96.9932 26.917 95.0289 24.5645 95.0289 20.8536H109.082V18.9268C109.082 12.7693 105.71 8.50037 99.9021 8.50037Z" fill="#212529"/>
<path d="M71.7573 24.8012C70.287 26.2465 69.1226 26.7861 67.273 26.7861C66.4402 26.8172 65.6112 26.6601 64.8475 26.3265C64.0839 25.9929 63.4052 25.4914 62.8622 24.8593C61.5445 23.4133 60.8312 21.5172 60.8692 19.5612C60.8276 17.6183 61.5416 15.735 62.8607 14.3079C63.4058 13.6789 64.085 13.1801 64.8483 12.8483C65.6117 12.5165 66.4397 12.3601 67.2715 12.3907C69.113 12.3907 70.2745 12.9288 71.7485 14.3645C72.181 12.9332 72.8585 11.5878 73.751 10.3882C71.866 9.05328 69.5881 8.38861 67.2811 8.50035C61.9329 8.50035 56.6841 11.4468 56.6841 19.5693C56.6841 27.6918 61.9329 30.6757 67.2811 30.6757C69.5911 30.7776 71.8687 30.1026 73.7502 28.7585C72.8666 27.5618 72.1927 26.2237 71.7573 24.8012Z" fill="#212529"/>
<path d="M88.5686 24.8012C87.0983 26.2465 85.9338 26.7861 84.0842 26.7861C83.2515 26.8172 82.4224 26.6601 81.6588 26.3265C80.8951 25.9929 80.2165 25.4914 79.6734 24.8593C78.3557 23.4133 77.6425 21.5172 77.6805 19.5612C77.6389 17.6183 78.3528 15.735 79.672 14.3079C80.217 13.6789 80.8962 13.1801 81.6596 12.8483C82.4229 12.5165 83.251 12.3601 84.0828 12.3907C85.9243 12.3907 87.0858 12.9288 88.5597 14.3645C88.9922 12.9332 89.6698 11.5878 90.5623 10.3882C88.6773 9.05328 86.3994 8.38861 84.0923 8.50035C78.7442 8.50035 73.4954 11.4468 73.4954 19.5693C73.4954 27.6918 78.7442 30.6757 84.0923 30.6757C86.4024 30.7776 88.68 30.1026 90.5615 28.7585C89.6779 27.5618 89.004 26.2237 88.5686 24.8012Z" fill="#212529"/>
<path d="M43.906 6.87572L39.1643 20.3713H48.5241L43.906 6.87572ZM51.8961 30.4111L49.7981 24.3006H37.7955L35.6989 30.4111H30.7875L41.9417 0H45.6534L56.798 30.4111H51.8961Z" fill="#212529"/>
<path d="M13.2496 20.4566C10.1814 20.4484 7.23442 21.6537 5.05133 23.8096L4.83079 24.0301L2.24973 21.4387L2.47027 21.2182C5.33705 18.3716 9.21615 16.7786 13.2562 16.789C17.9125 16.789 22.0866 18.3379 24.9014 21.6152V0H1.00956C1.60428 5.89358 6.59144 9.96402 12.6453 9.96402C15.7132 9.97203 18.6599 8.76678 20.8428 6.61107L21.0633 6.40303L23.651 8.9907L23.4304 9.21124C20.5664 12.0561 16.6909 13.6489 12.6541 13.6404C7.98893 13.6287 3.8141 12.0886 1 8.81133V30.4111H24.8757C24.281 24.53 19.2938 20.4566 13.2496 20.4566Z" fill="#002D74"/>
</g>
<defs>
<clipPath id="clip0_244_11339">
<rect width="136" height="30.6757" fill="white" transform="translate(1)"/>
</clipPath>
</defs>
</svg>
